<?xml version="1.0" encoding="utf-8"?>
<svg preserveAspectRatio="xMidYMid meet" viewBox="0 0 90.000000 93.000000" height="206px" width="206px" xmlns="http://www.w3.org/2000/svg" version="1.0" style="height: 100%; width: 100%; background: none; shape-rendering: auto;"><g class="ldl-scale" style="transform-origin: 50% 50%; transform: rotate(0deg) scale(0.71, 0.71);"><g class="ldl-ani" style="transform: matrix(1, 0, 0, 1, 0, 0); transform-origin: 45px 46.5px; animation: 1s linear 0s infinite normal forwards running bounce-50e2b128-dc28-48d0-9fea-96a9b28b292e;">

<g class="ldl-layer"><g class="ldl-ani"><g stroke="none" fill="#000000" transform="translate(0.000000,93.000000) scale(0.100000,-0.100000)">
<g class="ldl-layer"><g class="ldl-ani"><path d="M622 878 c1 -7 -8 -38 -20 -69 l-23 -55 -50 10 c-61 12 -171 -4 -244
-38 -76 -35 -157 -114 -191 -188 -25 -54 -29 -75 -29 -148 1 -72 5 -93 27
-135 34 -64 98 -126 168 -162 49 -25 66 -28 150 -28 89 0 99 2 158 34 73 40
149 118 182 188 28 57 38 186 21 250 -6 23 -27 64 -46 92 l-34 51 44 30 c24
17 49 29 56 28 6 -2 14 3 16 10 4 9 -5 11 -36 6 -23 -4 -41 -4 -41 -1 0 3 9
22 21 41 12 20 18 36 15 36 -4 0 -29 -11 -56 -25 l-49 -25 -11 41 c-6 23 -9
47 -6 55 3 8 -1 14 -10 14 -8 0 -14 -6 -12 -12z m-60 -154 c61 -20 117 -70
153 -135 27 -49 30 -62 30 -149 0 -115 -21 -167 -100 -245 -75 -76 -131 -99
-235 -100 -73 0 -93 4 -142 28 -109 54 -172 153 -173 272 0 153 110 284 275
329 72 19 136 20 192 0z" style=""></path></g></g>
<g class="ldl-layer"><g class="ldl-ani"><path d="M280 585 c-17 -20 -5 -45 20 -45 11 0 23 7 26 15 6 15 -11 45 -26 45
-4 0 -13 -7 -20 -15z" style=""></path></g></g>
<g class="ldl-layer"><g class="ldl-ani"><path d="M520 585 c-17 -20 -5 -45 20 -45 11 0 23 7 26 15 6 15 -11 45 -26 45
-4 0 -13 -7 -20 -15z" style=""></path></g></g>
<g class="ldl-layer"><g class="ldl-ani"><path d="M300 492 c0 -21 45 -42 90 -42 45 0 90 21 90 42 0 6 -9 3 -20 -7 -13
-12 -35 -17 -70 -17 -35 0 -57 5 -70 17 -11 10 -20 13 -20 7z" style=""></path></g></g>
<g class="ldl-layer"><g class="ldl-ani"><path d="M767 856 c-8 -20 20 -43 35 -28 14 14 3 42 -16 42 -7 0 -16 -6 -19
-14z" style=""></path></g></g>
</g></g></g>
</g></g><style id="bounce-50e2b128-dc28-48d0-9fea-96a9b28b292e" data-anikit="">@keyframes bounce-50e2b128-dc28-48d0-9fea-96a9b28b292e
{
  0% {
    animation-timing-function: cubic-bezier(0.1361,0.2514,0.2175,0.8786);
    transform: translate(0,0px) scaleY(1);
  }
  37% {
    animation-timing-function: cubic-bezier(0.7674,0.1844,0.8382,0.7157);
    transform: translate(0,-39.96px) scaleY(1);
  }
  72% {
    animation-timing-function: cubic-bezier(0.1118,0.2149,0.2172,0.941);
    transform: translate(0,0px) scaleY(1);
  }
  87% {
    animation-timing-function: cubic-bezier(0.7494,0.2259,0.8209,0.6963);
    transform: translate(0,19.900000000000002px) scaleY(0.602);
  }
  100% {
    transform: translate(0,0px) scaleY(1);
  }
}</style><!-- [ldio] generated by https://loading.io/ --></svg>