<svg width="50" height="44" viewBox="0 0 50 44" xmlns="http://www.w3.org/2000/svg">
    <g fill="none" fill-rule="evenodd">
        <path fill="#3EC4BA" d="m34.855 27.473-10.13-15.935-10.13 15.935-10.749-9.488 7.202 25.422h27.355l7.201-25.422z"/>
        <path d="m25 13.474 9.927 15.558 9.089-7.991-6.076 21.366H12.06L5.984 21.04l9.089 7.991L25 13.474z" stroke="#3EC4BA" stroke-width="2"/>
        <path d="M30.808 5.808a5.808 5.808 0 1 1-11.616 0 5.808 5.808 0 0 1 11.616 0" fill="#3EC4BA"/>
        <path d="M25 1c1.328 0 2.53.538 3.4 1.408a4.792 4.792 0 0 1 1.408 3.4c0 1.327-.538 2.53-1.408 3.4a4.793 4.793 0 0 1-3.4 1.407 4.792 4.792 0 0 1-3.4-1.408 4.793 4.793 0 0 1-1.408-3.4c0-1.327.538-2.529 1.408-3.399A4.792 4.792 0 0 1 25 1z" stroke="#3EC4BA" stroke-width="2"/>
        <path d="M30.808 5.808a5.808 5.808 0 1 1-11.616 0 5.808 5.808 0 0 1 11.616 0" fill="#3EC4BA"/>
        <path d="M25 1c1.328 0 2.53.538 3.4 1.408a4.792 4.792 0 0 1 1.408 3.4c0 1.327-.538 2.53-1.408 3.4a4.793 4.793 0 0 1-3.4 1.407 4.792 4.792 0 0 1-3.4-1.408 4.793 4.793 0 0 1-1.408-3.4c0-1.327.538-2.529 1.408-3.399A4.792 4.792 0 0 1 25 1z" stroke="#3EC4BA" stroke-width="2"/>
        <path d="M50 13.953a4.093 4.093 0 1 1-8.186 0 4.093 4.093 0 0 1 8.186 0" fill="#3EC4BA"/>
        <path d="M45.907 10.86c.854 0 1.627.347 2.187.906.56.56.906 1.333.906 2.187 0 .854-.346 1.628-.906 2.187-.56.56-1.333.906-2.187.906a3.084 3.084 0 0 1-2.187-.906 3.083 3.083 0 0 1-.906-2.187c0-.854.346-1.627.906-2.187a3.084 3.084 0 0 1 2.187-.906z" stroke="#3EC4BA" stroke-width="2"/>
        <path d="M50 13.953a4.093 4.093 0 1 1-8.186 0 4.093 4.093 0 0 1 8.186 0" fill="#3EC4BA"/>
        <path d="M45.907 10.86c.854 0 1.627.347 2.187.906.56.56.906 1.333.906 2.187 0 .854-.346 1.628-.906 2.187-.56.56-1.333.906-2.187.906a3.084 3.084 0 0 1-2.187-.906 3.083 3.083 0 0 1-.906-2.187c0-.854.346-1.627.906-2.187a3.084 3.084 0 0 1 2.187-.906z" stroke="#3EC4BA" stroke-width="2"/>
        <path d="M8.186 13.953a4.093 4.093 0 1 1-8.185 0 4.093 4.093 0 0 1 8.185 0" fill="#3EC4BA"/>
        <path d="M4.093 10.86c.855 0 1.628.347 2.188.906.56.56.905 1.333.905 2.187 0 .854-.346 1.628-.905 2.187-.56.56-1.333.906-2.188.906a3.084 3.084 0 0 1-2.187-.906A3.083 3.083 0 0 1 1 13.953c0-.854.346-1.627.906-2.187a3.084 3.084 0 0 1 2.187-.906z" stroke="#3EC4BA" stroke-width="2"/>
        <path d="M8.186 13.953a4.093 4.093 0 1 1-8.185 0 4.093 4.093 0 0 1 8.185 0" fill="#3EC4BA"/>
        <path d="M4.093 10.86c.855 0 1.628.347 2.188.906.56.56.905 1.333.905 2.187 0 .854-.346 1.628-.905 2.187-.56.56-1.333.906-2.188.906a3.084 3.084 0 0 1-2.187-.906A3.083 3.083 0 0 1 1 13.953c0-.854.346-1.627.906-2.187a3.084 3.084 0 0 1 2.187-.906z" stroke="#3EC4BA" stroke-width="2"/>
        <path fill="#3EC4BA" d="M35.143 27.51 25 11.616 14.857 27.511 4.093 18.046l7.211 25.36h27.392l7.21-25.36z"/>
        <path d="m25 13.474 9.927 15.558 9.089-7.991-6.076 21.366H12.06L5.984 21.04l9.089 7.991L25 13.474z" stroke="#3EC4BA" stroke-width="2"/>
        <path fill="#3EC4BA" d="M35.143 27.51 25 11.616 14.857 27.511 4.093 18.046l7.211 25.36h27.392l7.21-25.36z"/>
        <path d="m25 13.474 9.927 15.558 9.089-7.991-6.076 21.366H12.06L5.984 21.04l9.089 7.991L25 13.474z" stroke="#3EC4BA" stroke-width="2"/>
        <text font-family="SpoqaHanSans-Bold, SpoqaHanSans" font-size="15" font-weight="bold" letter-spacing="-.5" fill="#FFF">
                            <tspan x="21" y="36">1</tspan>
                        </text>
    </g>
</svg>
